<svg width="34" height="35" viewBox="0 0 34 35" fill="none" xmlns="http://www.w3.org/2000/svg">
<path d="M0.000244141 17.2C0.000244141 26.55 7.65024 34.2 17.0002 34.2C26.3502 34.2 34.0002 26.55 34.0002 17.2C34.0002 7.85 26.3502 0.199997 17.0002 0.199997C7.65024 0.199997 0.000244141 7.85 0.000244141 17.2Z" fill="#1ECCB0"/>
<path d="M14.6627 26.8688C14.0252 25.8063 13.1752 24.85 12.1127 24.2125C11.0502 23.575 9.98772 23.0438 8.71272 22.725C8.60647 22.725 8.50022 22.725 8.39397 22.8313C8.28772 22.9375 8.28772 23.0438 8.28772 23.15C8.28772 23.2563 8.28772 23.3625 8.39397 23.3625C9.77522 25.3813 11.9002 26.8688 14.2377 27.5063H14.344C14.4502 27.5063 14.4502 27.5063 14.5565 27.5063C14.5565 27.5063 14.6627 27.5063 14.6627 27.4L14.769 27.2938C14.769 27.2938 14.769 27.1875 14.769 27.0813C14.769 26.975 14.769 26.8688 14.6627 26.8688Z" fill="white"/>
<path d="M27.2002 14.3312V14.225C26.669 12.3125 25.6065 10.6125 24.119 9.3375C22.6315 8.0625 20.9315 7.10625 19.019 6.7875H18.9127C18.8065 6.7875 18.7002 6.7875 18.594 6.89375C18.4877 7 18.4877 7.10625 18.4877 7.2125V7.31875C19.444 13.1625 18.8065 19.1125 16.6815 24.6375C16.6815 24.7437 16.5752 24.7437 16.5752 24.85C16.5752 24.9562 16.469 24.9562 16.3627 24.9562C16.2565 24.9562 16.2565 24.9562 16.1502 24.9562C16.1502 24.9562 16.044 24.9562 16.044 24.85L15.9377 24.7437C15.9377 24.7437 15.9377 24.6375 15.9377 24.5312C15.9377 24.5312 15.8315 23.7875 15.8315 23.4687C15.194 18.3687 13.7065 13.4812 11.2627 8.9125C11.2627 8.80625 11.1565 8.80625 11.1565 8.80625L11.0502 8.7C11.0502 8.7 10.944 8.7 10.8377 8.7C10.7315 8.7 10.7315 8.7 10.6252 8.7C9.13772 9.86875 7.96897 11.3562 7.22522 13.1625C7.22522 13.2687 7.22522 13.375 7.22522 13.4812C7.22522 13.5875 7.33147 13.6937 7.43772 13.6937C9.77522 15.1812 11.6877 17.0938 13.069 19.5375C14.4502 21.875 15.194 24.6375 15.3002 27.2937C15.3002 27.4 15.3002 27.5062 15.4065 27.6125C15.5127 27.7187 15.619 27.7188 15.619 27.7188C15.8315 27.7188 16.1502 27.825 16.3627 27.825C16.469 27.825 16.5752 27.825 16.6815 27.7188C16.7877 27.6125 16.7877 27.6125 16.7877 27.5062C17.319 24.7437 18.4877 22.0875 20.294 19.8562C22.1002 17.625 24.3315 15.925 26.9877 14.7562C27.094 14.7562 27.094 14.65 27.2002 14.65C27.2002 14.4375 27.2002 14.4375 27.2002 14.3312Z" fill="white"/>
<path d="M26.2443 22.4062C26.2443 22.3 26.2443 22.1937 26.138 22.0875C26.0318 21.9812 25.9255 21.9812 25.8193 21.9812H25.713C22.4193 22.725 19.4443 24.5312 17.3193 27.0812C17.213 27.1875 17.213 27.2937 17.213 27.4C17.213 27.5062 17.213 27.6125 17.3193 27.7187C17.4255 27.825 17.5318 27.825 17.638 27.825C19.338 27.7187 21.038 27.1875 22.5255 26.3375C24.013 25.4875 25.288 24.2125 26.138 22.725C26.2443 22.6187 26.2443 22.5125 26.2443 22.4062Z" fill="white"/>
</svg>
